<svg version="1.1" id="Layer_1" xmlns="http://www.w3.org/2000/svg" xmlns:xlink="http://www.w3.org/1999/xlink" x="0px" y="0px"
	 viewBox="0 0 64 80" style="enable-background:new 0 0 64 80;" xml:space="preserve">
<style type="text/css">
	.st0{fill:#FCFCFC;}
	.st1{fill:#FFFFFF;}
</style>
<path class="st0" d="M42.2,54.4H21.8c-1.4,0-2.5,1.1-2.5,2.5v0.6h25.5v-0.6C44.7,55.5,43.6,54.4,42.2,54.4z"/>
<path class="st1" d="M4,43.2c0,2.1,1.7,3.8,3.8,3.8h16.8c0,0,0,0,0,0h14.8c0,0,0,0,0,0h16.8c2.1,0,3.8-1.7,3.8-3.8v-2.1H4V43.2z
	 M28.8,43h6.4c0.6,0,1,0.4,1,1s-0.4,1-1,1h-6.4c-0.6,0-1-0.4-1-1S28.2,43,28.8,43z"/>
<polygon class="st0" points="25.3,49.1 24.3,52.4 39.7,52.4 38.7,49.1 "/>
<path class="st0" d="M56.2,6.5H7.8C5.7,6.5,4,8.2,4,10.3v28.9h56V10.3C60,8.2,58.3,6.5,56.2,6.5z M28.1,27.7c-0.3,0-0.5-0.1-0.7-0.3
	c-0.4-0.4-0.4-1,0-1.4l6.7-6.7c0.4-0.4,1-0.4,1.4,0s0.4,1,0,1.4l-6.7,6.7C28.6,27.6,28.3,27.7,28.1,27.7z M36.6,25.9l-2.7,2.7
	c-0.2,0.2-0.5,0.3-0.7,0.3s-0.5-0.1-0.7-0.3c-0.4-0.4-0.4-1,0-1.4l2.7-2.7c0.4-0.4,1-0.4,1.4,0S37,25.5,36.6,25.9z"/>
</svg>
