<svg version="1.1" id="Layer_1" xmlns="http://www.w3.org/2000/svg" xmlns:xlink="http://www.w3.org/1999/xlink" x="0px" y="0px"
	 viewBox="0 0 195.5 310.7" style="enable-background:new 0 0 195.5 310.7;" xml:space="preserve">
<style type="text/css">
	.st0{fill:#FFFFFF;}
</style>
<g>
	<path class="st0" d="M76.7,242.8c-0.9-1.9-1.3-4-1.3-6.1c-0.4,0-0.9-0.1-1.3-0.1v-41.2h11.7c0.2-1.7,0.2-3.1,0.2-4.2
		c0-4.2-0.7-6.3-1.1-7.3H59.2c0,0,0,0,0,0c-0.4,0.9-1.1,3-1.1,7.2c0,1.1,0,2.5,0.2,4.2h8.3v33.3c0.4,1.2,0.8,2.4,1.3,3.6
		c0.5,1.4,0.8,2.8,0.8,4.2c0,0.4,0,0.7,0,1.1c-0.1,1.8-0.5,3.5-1.3,5.1c-1.1,2.4-2.8,4.3-5,5.7c6.2,0.2,13.1,0.2,19-0.2
		C79.4,246.9,77.8,245,76.7,242.8z"/>
	<path class="st0" d="M44.2,245.1c0,0.4,0.3,0.7,0.8,1C44.8,245.7,44.5,245.4,44.2,245.1C44.2,245,44.2,245,44.2,245.1z"/>
	<path class="st0" d="M61.3,147.9c-1,0.3-2,0.5-3,0.5h0l0,0c-5.2,0-11.4-0.6-15.8-1.6v2.6h18.6L61.3,147.9z"/>
	<path class="st0" d="M86.4,182.5c0,0,0,0.1,0.1,0.1c0.2,0.3,0.4,0.8,0.6,1.3c0.5,1.5,1,3.8,1,7.3c0,1.3-0.1,2.7-0.2,4.2
		c-0.7,8.3-3.6,20.7-9.7,37.6c-0.5,1.2-0.7,2.5-0.7,3.8c-0.1,4.8,2.9,9.3,7.6,11.1c0.1,0.1,0.3,0.1,0.4,0.1c1.2,0.4,2.4,0.6,3.5,0.6
		c4.7,0,9.2-2.9,10.9-7.6v0c7.8-21.6,11.3-37.2,11.3-49.7c0-5.9-0.8-11.2-2.6-15.9h-12h-54h-6.9c-1.8,4.7-2.7,10.1-2.7,15.9
		c0,12.6,3.5,28.2,11.3,49.7c0.2,0.6,0.5,1.3,0.9,1.8c1.2,2,2.9,3.6,4.9,4.6c2.4,1.2,5.2,1.5,7.9,0.8c0.4-0.1,0.7-0.2,1.1-0.3
		c4.5-1.6,7.4-5.8,7.6-10.3c0-0.3,0-0.7,0-1c0-0.4,0-0.8-0.1-1.2c-0.1-0.8-0.3-1.6-0.6-2.3c-6.2-17-9-29.3-9.7-37.6
		c-0.1-1.6-0.2-3-0.2-4.2c0-3.5,0.5-5.8,1-7.3c0.1-0.3,0.2-0.6,0.3-0.8c0.1-0.2,0.2-0.4,0.3-0.6h2.6h23.5L86.4,182.5L86.4,182.5z"/>
	<ellipse class="st0" cx="69.5" cy="69.5" rx="22.5" ry="22.5"/>
	<path class="st0" d="M70.8,148.8l-0.6-3.2l-2.5-3.8c-0.3,0.8-0.7,1.6-1.2,2.4l1.6,2.5L70.8,148.8z"/>
	<path class="st0" d="M156.6,194.9c1.1,18.5,2.2,40.3,2.2,53h14c0-18.9-2.2-55.2-3.5-74.7h7.8c2.2,0,4-1.8,4-4v-13.9
		c0-2.2-1.8-4-4-4H96.6H78.2H60.9H42.5H4c-2.2,0-4,1.8-4,4v13.9c0,2.2,1.8,4,4,4h7.8c-1.3,19.5-3.5,55.8-3.5,74.7h14
		c0-12.7,1.1-34.5,2.2-53c0.5-8.2,1-15.8,1.3-21.7h8.5h2.2h6h54.1h11.1h2.2h45.3C155.6,179.2,156.1,186.7,156.6,194.9z"/>
	<path class="st0" d="M57.1,146.4c0.4,0,0.8,0,1.1,0c0,0,0,0,0,0c1.1,0,2.1-0.2,3.1-0.6c0.1,0,0.1-0.1,0.2-0.1
		c1.5-0.7,2.8-1.9,3.6-3.3c0.5-0.8,0.8-1.7,1-2.7c0.1-0.4,0.1-0.8,0.1-1.2v0c0-2.5-1.1-4.7-2.9-6.2c-1-0.8-2.2-1.4-3.5-1.7
		c-0.5-0.1-1-0.2-1.6-0.2c-0.4,0-0.7,0-1.1,0c-1.5,0-2.9-0.1-4.2-0.3c-5.3-0.6-8.5-1.9-10.1-3c-0.2-0.1-0.4-0.3-0.5-0.4
		c-0.3-0.3-0.6-0.5-0.8-0.7c-0.3-0.3-0.4-0.6-0.6-0.8c-0.3-0.6-0.4-1.2-0.4-1.9c0-1.3,0.6-3.2,1.8-4.8v6.7c1.8,0.8,6.9,2.8,13.5,3.2
		l-3.5-5.4l1.3-1.5l4.8,7.1c2,0,3.8,0.6,5.3,1.6l1.8-12.9c1.3,0.5,2.7,0.7,4,0.7h0c0,0,0,0,0,0c1.4,0,2.7-0.3,4-0.7l4.4,32.3h18.6
		v-22.1c4.8,4.3,11,8.6,18.7,11.8v1.6h4.3h16.9h29.3v-36.3h-50.5v16.9c-4-2.4-7.3-5.1-10-7.8c-2.9-2.8-5-5.6-6.3-7.5
		c-0.7-1-1.2-1.8-1.4-2.3c-0.1-0.3-0.3-0.4-0.3-0.5c0,0,0-0.1-0.1-0.1c-1.5-3-4.7-4.6-7.8-4.3c-0.1,0-0.3,0-0.4,0H50.2
		c-0.6,0-1.1,0.1-1.6,0.2c-0.1,0-0.3,0-0.4,0c-6.8,0-12.6,3.4-16.6,7.7c-4,4.4-6.8,10.1-6.8,16.6c0,3.1,0.7,6.3,2.2,9.3
		c2.3,4.5,6.5,8.2,11.7,10.4c0.8,0.3,1.6,0.7,2.5,1c0.4,0.2,0.9,0.3,1.4,0.4C46.7,145.6,51.5,146.3,57.1,146.4z M140.5,113.5
		c2.6,0,4.8,2.1,4.8,4.8s-2.1,4.8-4.8,4.8s-4.8-2.1-4.8-4.8S137.9,113.5,140.5,113.5z M65.7,104.9h3.8h3.8l1.9,7.5l-0.3,0.5
		c-1.6,1.3-3.5,2-5.4,2c-1.9,0-3.8-0.7-5.4-2l-0.3-0.5L65.7,104.9z"/>
	<path class="st0" d="M126.8,142.7h-11.5v5.7h50.5v-5.7h-32.2H126.8z M143.7,144.3h20.1v2.3h-20.1V144.3z M119.5,146.6h-2.3v-2.3
		h2.3V146.6z M123.5,146.6h-2.3v-2.3h2.3V146.6z M127.6,146.6h-2.3v-2.3h2.3V146.6z"/>
	<path class="st0" d="M166.5,0c-16,0-29,13-29,29c0,16,13,29,29,29c16,0,29-13,29-29C195.5,13,182.5,0,166.5,0z M166.5,54.6
		c-14.1,0-25.6-11.5-25.6-25.6c0-14.1,11.5-25.6,25.6-25.6c14.1,0,25.6,11.5,25.6,25.6C192.1,43.1,180.6,54.6,166.5,54.6z"/>
	<path class="st0" d="M166.5,6c-12.7,0-23,10.3-23,23c0,12.7,10.3,23,23,23c12.7,0,23-10.3,23-23C189.6,16.3,179.2,6,166.5,6z
		 M165.2,8.5h2.6v8.8h-2.6V8.5z M154.8,30.3H146v-2.6h8.8V30.3z M167.8,49.5h-2.6v-8.8h2.6V49.5z M167.8,30.3
		c-0.6,0.6-1.6,0.6-2.2,0l-9.9-9.7c-0.6-0.6-0.6-1.6,0-2.2c0.6-0.6,1.6-0.6,2.2,0l9.1,9l12.8-10.2c0.3-0.3,0.8-0.1,1.1,0.3
		s0.3,0.9,0,1.2l-12.8,10.2C168.3,29.4,168.2,29.9,167.8,30.3z M178.2,30.3v-2.6h8.8v2.6H178.2z"/>
</g>
</svg>
